HIERARCHY
ROOT Hips
{
	OFFSET 0.000000 0.000000 0.000000
	CHANNELS 6 Xposition Yposition Zposition Xrotation Yrotation Zrotation
	JOINT Chest
	{
		OFFSET 0.000000 14.998021 134.982056
		CHANNELS 6 Xposition Yposition Zposition Xrotation Yrotation Zrotation
		JOINT Chest2
		{
			OFFSET 0.000000 0.000007 98.640320
			CHANNELS 6 Xposition Yposition Zposition Xrotation Yrotation Zrotation
			JOINT Chest3
			{
				OFFSET 0.000000 0.268403 90.094391
				CHANNELS 6 Xposition Yposition Zposition Xrotation Yrotation Zrotation
				JOINT Chest4
				{
					OFFSET 0.000000 0.268673 89.993713
					CHANNELS 6 Xposition Yposition Zposition Xrotation Yrotation Zrotation
					JOINT Neck
					{
						OFFSET 0.000000 0.000010 125.879730
						CHANNELS 6 Xposition Yposition Zposition Xrotation Yrotation Zrotation
						JOINT Head
						{
							OFFSET 0.000000 0.408617 96.176331
							CHANNELS 6 Xposition Yposition Zposition Xrotation Yrotation Zrotation
							End Site
							{
								OFFSET 0.000000 0.187551 189.397156
							}
						}
					}
					JOINT RightCollar
					{
						OFFSET -27.930449 0.000005 70.722137
						CHANNELS 6 Xposition Yposition Zposition Xrotation Yrotation Zrotation
						JOINT RightShoulder
						{
							OFFSET -134.678040 0.000000 0.000000
							CHANNELS 6 Xposition Yposition Zposition Xrotation Yrotation Zrotation
							JOINT RightElbow
							{
								OFFSET -264.798676 0.000000 0.000000
								CHANNELS 6 Xposition Yposition Zposition Xrotation Yrotation Zrotation
								JOINT RightWrist
								{
									OFFSET -219.137085 -0.109474 0.000000
									CHANNELS 6 Xposition Yposition Zposition Xrotation Yrotation Zrotation
									End Site
									{
										OFFSET -165.338013 0.000000 0.000000
									}
								}
							}
						}
					}
					JOINT LeftCollar
					{
						OFFSET 27.930449 0.000005 70.722137
						CHANNELS 6 Xposition Yposition Zposition Xrotation Yrotation Zrotation
						JOINT LeftShoulder
						{
							OFFSET 134.678040 0.000000 0.000000
							CHANNELS 6 Xposition Yposition Zposition Xrotation Yrotation Zrotation
							JOINT LeftElbow
							{
								OFFSET 264.798676 0.000000 0.000000
								CHANNELS 6 Xposition Yposition Zposition Xrotation Yrotation Zrotation
								JOINT LeftWrist
								{
									OFFSET 219.137085 -0.109474 0.000000
									CHANNELS 6 Xposition Yposition Zposition Xrotation Yrotation Zrotation
									End Site
									{
										OFFSET 165.338013 0.000000 0.000000
									}
								}
							}
						}
					}
				}
			}
		}
	}
	JOINT RightHip
	{
		OFFSET -112.061028 0.074131 0.667181
		CHANNELS 6 Xposition Yposition Zposition Xrotation Yrotation Zrotation
		JOINT RightKnee
		{
			OFFSET 0.000000 0.118733 -350.283783
			CHANNELS 6 Xposition Yposition Zposition Xrotation Yrotation Zrotation
			JOINT RightAnkle
			{
				OFFSET 0.000000 0.179805 -378.945648
				CHANNELS 6 Xposition Yposition Zposition Xrotation Yrotation Zrotation
				JOINT RightToe
				{
					OFFSET 0.000000 -188.305115 -81.964233
					CHANNELS 6 Xposition Yposition Zposition Xrotation Yrotation Zrotation
					End Site
					{
						OFFSET 0.000000 -74.059799 -16.416992
					}
				}
			}
		}
	}
	JOINT LeftHip
	{
		OFFSET 112.061028 0.071855 0.646698
		CHANNELS 6 Xposition Yposition Zposition Xrotation Yrotation Zrotation
		JOINT LeftKnee
		{
			OFFSET 0.000000 0.118733 -350.283783
			CHANNELS 6 Xposition Yposition Zposition Xrotation Yrotation Zrotation
			JOINT LeftAnkle
			{
				OFFSET 0.000000 0.179805 -378.945679
				CHANNELS 6 Xposition Yposition Zposition Xrotation Yrotation Zrotation
				JOINT LeftToe
				{
					OFFSET 0.000000 -188.305115 -81.964233
					CHANNELS 6 Xposition Yposition Zposition Xrotation Yrotation Zrotation
					End Site
					{
						OFFSET 0.000000 -74.059814 -16.416992
					}
				}
			}
		}
	}
}
MOTION
Frames: 4
Frame Time: 0.041667
-16480.552734 -9245.701172 842.342163 -0.668479 -23.193309 -1352.775683 -0.000102 14.998017 134.981720 12.297238 -1.156659 4.307837 -0.000316 0.000877 98.640617 -0.369555 -0.816100 1.809884 -0.000362 0.266392 90.094063 5.450880 -0.816287 1.809800 0.000115 0.267908 89.993614 9.920988 -0.488004 1.407024 0.000508 0.000846 125.879715 20.457038 2.333140 2.005069 0.000348 0.407516 96.176369 1.906945 3.670473 4.365835 -27.929499 0.000051 70.721977 0.223494 -5.490091 -0.735795 -134.677216 -0.002402 0.000110 -1.125162 -52.687492 30.510636 -264.798279 -0.001052 -0.000443 49.667404 -25.015264 99.596364 -219.138519 -0.109212 0.000939 -1.680087 -23.110596 -23.426246 27.931330 -0.000702 70.722137 -10.262662 8.894243 -3.169258 134.678360 0.000378 0.000247 -30.470700 46.616816 33.983091 264.798737 0.000283 -0.001117 -114.275485 150.281538 76.074620 219.138077 -0.109557 0.000942 -3.294193 9.940126 18.457808 -112.060707 0.074341 0.666877 24.604039 -5.352391 -5.686264 0.002711 0.118714 -350.283783 7.707832 1.697418 8.001602 0.001138 0.180721 -378.945679 -10.298663 5.021613 -0.196853 -0.000847 -188.305664 -81.964294 -0.000003 -0.000000 -0.000000 112.061028 0.071596 0.646276 5.904328 2.450632 -14.070210 -0.002939 0.118830 -350.283661 53.031559 3.123457 -4.164208 -0.000650 0.179482 -378.946472 -9.559107 1.014477 20.422817 -0.000658 -188.304962 -81.964188 -0.000001 0.000000 -0.000000 
-16471.929688 -9257.126953 840.672180 -2.156400 -22.871966 -1355.707419 0.000556 14.999053 134.982895 12.206947 -1.259608 4.757521 0.001845 -0.001633 98.640121 -0.411789 -0.892500 2.000273 -0.000122 0.270419 90.093887 5.408442 -0.892666 2.000108 -0.000019 0.265851 89.993980 9.888223 -0.532091 1.554337 0.000427 -0.001479 125.879707 20.482600 2.483691 2.365967 0.000368 0.409101 96.177200 1.946093 3.839240 5.070686 -27.929863 -0.002421 70.721992 0.330676 -5.373204 -0.642532 -134.678024 0.001630 0.000010 -1.220696 -52.531927 30.981793 -264.797882 0.000427 0.000637 49.178055 -25.839079 98.766373 -219.137115 -0.109313 0.000832 -1.497510 -22.506558 -23.259796 27.931072 -0.001132 70.722092 -10.372074 9.026892 -3.009873 134.677597 -0.000905 -0.000158 -30.949377 46.156670 34.618004 264.798218 0.001066 0.000258 -114.267883 149.528742 76.295023 219.137756 -0.109437 0.001768 -3.274563 9.201725 17.867927 -112.061432 0.074737 0.667877 25.526888 -6.202907 -5.122037 0.000452 0.117551 -350.283722 6.625287 1.507204 8.806816 0.001565 0.180213 -378.945648 -10.169551 5.332222 1.296972 -0.000213 -188.305130 -81.963692 -0.000002 -0.000000 -0.000000 112.061768 0.071536 0.647306 4.400908 4.269485 -16.023808 -0.000693 0.121154 -350.284332 52.870288 2.682113 -4.260238 -0.000075 0.178840 -378.945251 -10.236537 -0.029931 21.152203 0.000416 -188.305771 -81.964699 1.295094 -0.378647 -0.031908 
-16463.308594 -9268.508789 838.666748 -3.622444 -22.438689 -1358.702648 0.000739 14.999848 134.981766 12.108582 -1.353944 5.289326 -0.000184 -0.000449 98.639694 -0.457291 -0.970747 2.227533 -0.000373 0.268282 90.094528 5.362964 -0.970933 2.227332 -0.000621 0.267171 89.993439 9.853074 -0.575084 1.729388 -0.001310 0.000799 125.879822 20.505877 2.631247 2.696542 0.000035 0.407878 96.177330 1.980638 4.011565 5.719235 -27.931122 -0.000056 70.722084 0.499276 -5.259169 -0.538045 -134.677597 0.001132 0.000151 -1.284963 -52.442462 31.559664 -264.799164 0.000777 -0.000180 48.550750 -26.563144 97.835800 -219.137527 -0.109861 -0.001288 -1.327778 -21.868550 -23.056876 27.928976 0.000940 70.722031 -10.422929 9.115221 -2.729229 134.678085 -0.002224 -0.000015 -31.568544 45.765498 35.385745 264.798340 -0.000354 0.000410 -114.216513 148.606488 76.546722 219.137894 -0.109734 -0.000033 -3.237335 8.395352 17.281106 -112.060715 0.076019 0.666930 26.400553 -6.979974 -4.328173 -0.000188 0.120323 -350.283691 5.738693 1.304847 9.752410 0.001809 0.179848 -378.945770 -10.184658 5.853640 2.533449 0.000588 -188.304916 -81.963577 -0.000000 -0.000000 -0.000000 112.060768 0.073031 0.646543 2.901207 5.965899 -17.916667 0.000305 0.120298 -350.283936 52.179756 1.934390 -4.356274 -0.001145 0.180079 -378.945953 -10.823754 -1.032590 21.951811 -0.001954 -188.305710 -81.964531 0.654739 -0.163232 -0.033875 
-16454.306641 -9279.625977 836.684814 -4.914749 -22.059785 -1361.537887 -0.000055 14.998288 134.981094 12.062319 -1.375825 5.820251 -0.000553 0.000970 98.640503 -0.478440 -1.017590 2.459657 0.000983 0.268514 90.093628 5.341994 -1.017844 2.459551 -0.000757 0.266573 89.993958 9.836368 -0.594409 1.906107 -0.001517 -0.001181 125.879944 20.519476 2.768735 3.010558 0.000317 0.407330 96.176689 1.998093 4.170155 6.334598 -27.931404 0.000547 70.722229 0.686662 -5.149169 -0.450662 -134.678696 0.000075 0.000028 -1.298207 -52.477098 32.244917 -264.798950 0.001032 0.000101 47.892942 -27.139121 96.791219 -219.137665 -0.109263 0.000789 -1.167413 -21.305494 -22.939556 27.929457 0.000499 70.722237 -10.552359 9.255955 -2.535793 134.677475 -0.000333 0.000125 -32.045427 45.305369 36.143899 264.798737 -0.000833 -0.000081 -114.370841 148.085741 76.869210 219.135864 -0.109549 0.000588 -3.134133 7.696585 16.755120 -112.060509 0.075683 0.666626 27.360068 -7.582591 -3.333831 0.000865 0.119187 -350.283844 5.062996 1.116821 10.304086 0.000652 0.180403 -378.945740 -10.342529 6.301800 3.819969 -0.000626 -188.305313 -81.965088 -0.000002 0.000000 0.000000 112.062195 0.072514 0.646055 1.565443 7.489482 -19.847596 -0.000812 0.119024 -350.283539 50.967251 1.323350 -4.457094 0.001850 0.178762 -378.945129 -11.056201 -1.871453 22.585101 -0.001510 -188.304428 -81.964478 -0.000003 0.000000 -0.000000 
